<svg version="1.1" id="Layer_1" xmlns="http://www.w3.org/2000/svg" xmlns:xlink="http://www.w3.org/1999/xlink" x="0px" y="0px"
	 width="100%" viewBox="0 0 1024 624" enable-background="new 0 0 1024 624" xml:space="preserve">
<path fill="#000000" opacity="1.000000" stroke="none" 
	d="
M307.493317,395.521637 
	C315.664124,425.233826 329.073059,451.824219 348.571899,475.202057 
	C382.481262,515.857300 425.715668,540.362366 478.131561,547.391968 
	C546.904724,556.615234 605.706177,534.936218 654.494629,486.411133 
	C685.177734,455.893646 703.657593,418.451965 709.635681,375.600494 
	C719.596619,304.199341 698.031738,243.284576 646.365723,193.017624 
	C644.694580,191.391785 643.043701,189.743927 641.428223,188.063217 
	C641.131531,187.754532 641.051758,187.237411 641.333801,186.508865 
	C672.057007,211.277161 693.660461,242.441879 706.058105,279.948395 
	C718.424438,317.360413 719.952026,355.418152 711.259216,393.743622 
	C687.854797,496.930817 593.229675,561.403809 496.630310,555.950317 
	C388.704498,549.857422 306.243042,468.741302 296.819427,366.451019 
	C287.307404,263.201508 351.502747,189.388016 403.609833,164.596207 
	C321.755859,220.548782 286.238525,295.994537 307.493317,395.521637 
z"/>
<path fill="#000000" opacity="1.000000" stroke="none" 
	d="
M486.687866,173.641281 
	C494.638489,171.031860 502.373749,168.992386 510.006439,165.354736 
	C508.449066,163.787781 506.722870,163.575897 505.018921,163.251038 
	C497.224609,161.765060 489.911560,159.307724 484.006958,153.595993 
	C481.533203,151.203003 478.553253,150.451614 474.852448,150.922272 
	C463.911285,152.313751 453.405914,155.572983 442.671722,157.824509 
	C438.281677,158.745331 434.236023,158.354431 430.226746,155.060104 
	C432.988586,152.925369 435.846497,152.421432 438.726166,151.863770 
	C448.707520,149.930771 458.563324,147.503799 468.017792,143.698669 
	C470.588562,142.664032 473.687286,141.754333 471.780518,137.683578 
	C470.771851,135.530182 473.291626,135.619675 474.414429,134.679626 
	C469.475342,124.590843 462.821198,115.778397 457.580963,106.145729 
	C456.546844,104.244820 455.421051,102.392570 454.425323,100.472374 
	C453.690216,99.054733 452.319977,97.535934 453.947418,95.974632 
	C455.400055,94.581055 457.309723,94.532936 459.120605,95.197365 
	C462.968658,96.609238 466.082855,99.141655 468.728546,102.179031 
	C474.319031,108.597061 478.985779,115.712074 483.903687,122.637947 
	C485.617523,125.051491 487.064240,127.731285 490.101288,129.830780 
	C493.963562,126.337051 497.850739,122.793114 501.773285,119.288750 
	C503.011444,118.182564 504.251892,117.032211 505.655426,116.168808 
	C507.761505,114.873169 510.182953,114.319466 512.143677,116.204216 
	C514.401428,118.374489 512.216980,120.136887 511.051544,121.826317 
	C508.995270,124.807068 506.830261,127.712807 504.145020,131.433990 
	C511.206726,132.580399 517.510193,133.651779 523.829712,134.617798 
	C532.212463,135.899155 540.632751,136.953156 548.988831,138.385254 
	C554.291565,139.294067 558.603882,138.556137 562.409851,134.221985 
	C578.014587,116.451729 593.706299,98.760017 606.061279,78.466484 
	C608.032043,75.229424 610.309387,73.859177 613.857544,75.297607 
	C617.656555,76.837700 617.328735,79.734055 615.976929,82.764000 
	C607.795593,101.101929 597.220825,118.021332 585.385803,134.186554 
	C584.826477,134.950531 584.194458,135.863419 582.285767,135.013931 
	C590.065186,121.396408 597.892212,107.855476 604.698547,92.842041 
	C593.739319,105.149773 583.470215,116.871307 572.964355,128.376709 
	C569.385681,132.295883 565.248169,135.712051 561.295898,139.280319 
	C558.815857,141.519348 555.990295,142.093445 552.537659,141.728195 
	C535.668335,139.943573 518.824524,137.808258 501.851868,137.162369 
	C499.669586,137.079346 497.573639,136.752533 495.146667,135.504532 
	C496.851654,130.584656 501.281128,127.666069 503.316956,123.108879 
	C499.818451,127.293175 493.113739,128.214615 491.410767,135.517899 
	C480.415894,126.493202 473.894470,113.521637 462.863800,104.564102 
	C466.398926,111.118706 469.931732,117.674583 473.472046,124.226387 
	C473.947113,125.105560 474.482941,125.952095 474.952209,126.834175 
	C479.504425,135.391098 479.501495,135.431030 474.218170,144.821381 
	C482.067657,143.441666 486.968445,148.065903 492.026215,152.323837 
	C495.889648,155.576279 500.671753,156.462158 505.348328,157.624115 
	C509.891083,158.752808 514.419983,159.891815 517.956482,163.255768 
	C519.891541,165.096344 519.869568,166.754776 517.271240,167.834534 
	C503.698151,173.474930 489.545349,176.884125 474.981323,178.667877 
	C474.901947,178.677597 474.792694,178.443634 474.424713,177.979721 
	C477.957611,175.257736 482.380798,175.134766 486.687866,173.641281 
z"/>
<path fill="#000000" opacity="1.000000" stroke="none" 
	d="
M574.255981,262.898560 
	C574.278625,271.034424 574.278625,271.036835 581.901978,271.026306 
	C585.894775,271.020782 589.888306,270.955048 593.880188,271.010437 
	C596.829834,271.051392 598.110657,269.652527 598.087769,266.760773 
	C598.054871,262.602325 598.220703,258.440491 598.113281,254.284958 
	C598.002319,249.987549 600.569214,249.615875 603.963135,249.634583 
	C607.246399,249.652664 609.349854,250.173630 609.317017,254.202530 
	C609.192322,269.507690 609.193665,284.815277 609.331909,300.120300 
	C609.367493,304.062561 607.351562,304.889465 604.053467,304.890350 
	C600.780273,304.891235 597.970093,304.633209 598.051880,300.272034 
	C598.142273,295.449097 597.990051,290.621094 598.109131,285.799377 
	C598.191406,282.469330 596.892761,280.875366 593.436523,280.959991 
	C588.614807,281.078033 583.784302,281.109344 578.964661,280.955780 
	C575.185791,280.835358 574.060425,282.607452 574.203674,286.132172 
	C574.399597,290.948914 574.164001,295.781616 574.273621,300.603851 
	C574.369751,304.829742 571.546448,304.910156 568.566589,304.911591 
	C565.594177,304.913055 562.804077,304.857788 562.824280,300.633698 
	C562.899231,284.995117 562.904785,269.355988 562.863831,253.717239 
	C562.851135,248.883652 566.300171,249.854950 569.172302,249.682144 
	C572.239868,249.497589 574.450928,250.141861 574.264893,253.935471 
	C574.126465,256.756683 574.248840,259.590668 574.255981,262.898560 
z"/>
<path fill="#000000" opacity="1.000000" stroke="none" 
	d="
M505.613220,301.578705 
	C494.665710,293.460693 490.999634,279.055084 496.155212,265.429871 
	C500.434784,254.119812 512.129211,247.217529 525.472229,248.168777 
	C527.962158,248.346298 530.454956,248.583511 532.922974,248.950272 
	C540.296631,250.045990 542.272949,253.311920 540.320740,261.452423 
	C535.046509,260.213989 529.905151,258.265442 524.361084,258.250824 
	C517.147888,258.231781 511.055267,260.542084 507.636230,267.087646 
	C503.738892,274.548828 504.085907,282.297302 508.632690,289.432953 
	C512.253113,295.114685 524.196838,298.254059 529.950195,295.370209 
	C532.924194,293.879456 531.553345,290.983734 531.744934,288.647614 
	C531.928284,286.412689 530.809021,285.132141 528.490173,285.291412 
	C524.042664,285.596924 523.818970,282.793396 523.889221,279.463715 
	C523.974731,275.412628 526.726074,275.686859 529.464783,275.652222 
	C543.299011,275.477203 543.298828,275.465607 543.295776,289.084747 
	C543.295410,290.750519 543.295227,292.416260 543.295776,294.082031 
	C543.298645,302.726379 542.900757,303.431000 534.605469,304.906097 
	C524.786804,306.652039 515.040100,306.886841 505.613220,301.578705 
z"/>
<path fill="#000000" opacity="1.000000" stroke="none" 
	d="
M440.010620,249.704910 
	C443.809814,249.373444 445.321930,250.712341 445.300507,254.229538 
	C445.207336,269.539581 445.150330,284.851959 445.339844,300.160309 
	C445.398346,304.883636 442.600769,304.391937 439.472321,304.549774 
	C436.095978,304.720123 433.947021,304.156860 434.077728,300.139221 
	C434.245361,294.985107 434.062866,289.818726 434.267670,284.667053 
	C434.370056,282.091827 433.504791,280.961487 430.917084,280.991486 
	C425.426086,281.055176 419.933472,281.084686 414.442719,281.021667 
	C411.519836,280.988129 410.197144,282.197144 410.263855,285.192963 
	C410.371216,290.016663 410.099091,294.854156 410.343170,299.667816 
	C410.545349,303.655151 408.809357,304.986542 405.058319,304.938019 
	C401.554291,304.892700 398.838226,304.617584 398.883575,299.973877 
	C399.031525,284.830994 399.066650,269.684906 398.916046,254.542358 
	C398.869598,249.871933 401.462891,249.691666 405.001343,249.623199 
	C408.761902,249.550430 410.577301,250.672302 410.329742,254.723663 
	C410.086609,258.702606 410.369293,262.710785 410.261230,266.701813 
	C410.183624,269.568298 411.199554,271.079956 414.261749,271.033844 
	C419.419403,270.956146 424.580139,270.952789 429.737610,271.037201 
	C432.985352,271.090332 434.133698,269.482941 434.134949,266.424255 
	C434.136597,262.435333 434.516510,258.443207 434.435181,254.458542 
	C434.359619,250.757111 435.954834,249.261551 440.010620,249.704910 
z"/>
<path fill="#000000" opacity="1.000000" stroke="none" 
	d="
M490.207581,344.257263 
	C500.273407,333.131744 516.520386,333.431793 527.130005,336.946503 
	C532.079895,338.586304 529.848328,343.593109 530.031311,347.286438 
	C527.601990,348.346436 525.882263,346.973999 524.078491,346.375458 
	C518.885742,344.652283 513.536621,344.517395 508.285919,345.419922 
	C499.461853,346.936768 493.746155,355.552582 494.653625,365.272522 
	C495.891632,378.533020 504.618774,385.000366 517.782471,382.608032 
	C521.303650,381.968109 521.757629,379.852722 521.720154,376.870544 
	C521.684692,374.046082 521.376038,371.830688 517.786499,372.031494 
	C513.717468,372.259094 513.455933,369.774414 513.468689,366.520477 
	C513.483032,362.860901 515.284485,361.985596 518.432556,362.002533 
	C535.703735,362.095459 532.601929,360.136963 532.932434,375.490509 
	C532.950378,376.322327 532.934814,377.154846 532.935486,377.987061 
	C532.945251,389.856079 532.571411,390.465942 520.780640,392.018616 
	C515.519592,392.711365 510.116608,392.913757 504.868591,391.805786 
	C484.279816,387.459076 476.306671,362.049164 490.207581,344.257263 
z"/>
<path fill="#000000" opacity="1.000000" stroke="none" 
	d="
M553.017822,389.634033 
	C552.811523,373.044464 552.866455,356.901367 552.630127,340.762543 
	C552.557922,335.824524 555.616089,336.179291 558.872620,336.010590 
	C562.699585,335.812347 563.732361,337.550751 563.481445,341.147217 
	C563.181091,345.453705 563.445557,349.797333 563.385132,354.123749 
	C563.349976,356.643463 564.467407,357.737640 566.994812,357.707153 
	C572.652649,357.638855 578.312317,357.640594 583.970337,357.695892 
	C586.823181,357.723755 587.728027,356.243469 587.688538,353.624847 
	C587.620728,349.132324 587.791687,344.634705 587.661194,340.145081 
	C587.544983,336.147675 590.177124,336.040863 592.982971,336.068268 
	C595.714233,336.094971 598.417664,335.984833 598.394165,340.049896 
	C598.304077,355.694153 598.267578,371.339600 598.374756,386.983490 
	C598.403625,391.204590 595.899719,391.311401 592.819275,391.334991 
	C589.811096,391.358002 587.560486,390.977875 587.676636,387.118866 
	C587.826721,382.130737 587.560669,377.129608 587.729309,372.142700 
	C587.843567,368.764862 586.652161,367.246185 583.144165,367.353302 
	C577.989502,367.510620 572.824341,367.486877 567.667969,367.361938 
	C564.376770,367.282196 563.250427,368.781311 563.360779,371.911621 
	C563.501404,375.900818 563.372742,379.899200 563.379211,383.893555 
	C563.392090,391.923798 560.883179,393.447754 553.017822,389.634033 
z"/>
<path fill="#000000" opacity="1.000000" stroke="none" 
	d="
M360.102173,336.021271 
	C366.906281,336.042023 373.229858,336.209900 379.544128,336.037323 
	C384.720093,335.895874 384.925995,339.570557 385.138092,343.021515 
	C385.387634,347.081390 382.074005,346.152893 379.786774,346.213531 
	C374.967133,346.341431 370.141144,346.319641 365.319336,346.249115 
	C360.404663,346.177277 361.534546,349.771912 361.354309,352.588257 
	C361.170105,355.467041 361.305206,358.033966 365.339203,357.794312 
	C367.990814,357.636810 370.659271,357.761230 373.320160,357.760956 
	C381.664032,357.760040 381.753204,357.861664 381.119965,366.658417 
	C379.703796,367.933380 377.962860,367.362946 376.361786,367.364288 
	C361.306580,367.376892 361.307800,367.361816 361.343170,382.620544 
	C361.347015,384.283478 361.244568,385.950928 361.334259,387.608551 
	C361.539673,391.403931 358.985779,391.377777 356.357269,391.320740 
	C353.707825,391.263245 350.791260,391.760223 350.799896,387.593903 
	C350.832733,371.794891 350.825623,355.995636 350.766022,340.196716 
	C350.755646,337.455688 352.036957,336.230804 354.631744,336.133972 
	C356.292786,336.071960 357.955627,336.057159 360.102173,336.021271 
z"/>
<path fill="#000000" opacity="1.000000" stroke="none" 
	d="
M652.123535,346.238525 
	C650.829651,346.238708 649.979553,346.352875 649.169922,346.219971 
	C644.318848,345.423828 643.254944,347.892731 643.329224,352.209991 
	C643.520691,363.347260 643.287415,374.491394 643.436768,385.629974 
	C643.486877,389.365143 642.887451,391.487488 638.352661,391.461914 
	C634.021118,391.437469 632.517151,390.103180 632.611084,385.706543 
	C632.856140,374.238678 632.533691,362.758820 632.764648,351.290344 
	C632.846069,347.247467 631.373047,345.905487 627.544556,346.211517 
	C624.901245,346.422882 622.218262,346.377655 619.569275,346.202271 
	C617.521851,346.066711 614.356445,347.285645 614.644043,343.288513 
	C614.875671,340.069153 614.429443,336.128204 619.420959,336.109436 
	C632.057007,336.061890 644.693420,336.107391 657.329651,336.119934 
	C662.265503,336.124847 661.422485,340.214752 661.837708,343.003662 
	C662.386353,346.689392 659.300110,346.102020 657.074646,346.223999 
	C655.582642,346.305786 654.082458,346.238770 652.123535,346.238525 
z"/>
<path fill="#000000" opacity="1.000000" stroke="none" 
	d="
M412.446594,378.368774 
	C412.768219,381.617523 414.887817,381.593750 416.922638,381.600159 
	C422.585480,381.617950 428.248535,381.597931 433.911438,381.580688 
	C435.978241,381.574371 438.374878,381.479858 437.963623,384.458862 
	C437.596893,387.115509 438.704529,391.162476 434.090210,391.238586 
	C424.432831,391.397858 414.770813,391.266632 405.110748,391.283386 
	C402.528870,391.287842 401.623718,389.915222 401.625854,387.512573 
	C401.640076,371.689484 401.656311,355.866211 401.589172,340.043365 
	C401.570099,335.547089 404.748199,336.149902 407.508606,336.101013 
	C410.417816,336.049469 412.598907,336.525940 412.532745,340.463348 
	C412.322906,352.951538 412.435211,365.445129 412.446594,378.368774 
z"/>
<path fill="#000000" opacity="1.000000" stroke="none" 
	d="
M454.782013,377.988190 
	C454.777985,365.531769 454.944397,353.569916 454.684479,341.617340 
	C454.583801,336.987488 456.713928,336.008453 460.688446,335.980347 
	C464.699371,335.952026 466.272278,337.416046 466.222229,341.564209 
	C466.043793,356.343628 466.017914,371.128418 466.228912,385.906952 
	C466.294708,390.513428 464.303833,391.430481 460.217163,391.429199 
	C456.143890,391.427917 454.388550,390.099854 454.746796,385.956909 
	C454.960632,383.484253 454.783508,380.977753 454.782013,377.988190 
z"/>
<path fill="#000000" opacity="1.000000" stroke="none" 
	d="
M465.668762,259.045532 
	C465.665466,257.553253 465.758545,256.543396 465.643280,255.557861 
	C465.163452,251.456207 466.438263,249.586975 471.067261,249.558105 
	C475.909271,249.527893 476.410675,251.818008 476.373108,255.706253 
	C476.231567,270.352295 476.138336,285.003632 476.408478,299.645966 
	C476.493713,304.266388 474.436615,304.522339 470.722321,304.635773 
	C466.641174,304.760406 465.523010,303.344849 465.573456,299.485596 
	C465.747528,286.171967 465.658264,272.854919 465.668762,259.045532 
z"/>
<path fill="#000000" opacity="1.000000" stroke="none" 
	d="
M578.298279,141.699738 
	C593.391296,140.495834 604.003601,147.286942 612.185242,158.714279 
	C617.838440,166.610184 615.352539,173.766953 606.004211,176.895752 
	C594.602844,180.711655 583.357727,179.508179 572.223022,175.732956 
	C570.567139,175.171555 568.585632,175.100494 567.116089,172.589081 
	C571.667175,171.894577 575.907776,172.464676 579.925293,173.082611 
	C588.168457,174.350479 596.193176,173.537292 604.185242,171.759888 
	C612.166565,169.984879 613.845337,164.483597 608.304077,158.309875 
	C601.874878,151.146835 593.262146,148.216110 584.197571,146.199203 
	C580.412048,145.356888 576.311890,145.523468 572.603333,142.917877 
	C574.299561,141.148605 576.195068,141.900757 578.298279,141.699738 
z"/>
<path fill="#000000" opacity="1.000000" stroke="none" 
	d="
M457.904205,434.502136 
	C457.326660,429.380676 458.549316,425.376312 463.158661,423.363068 
	C467.104706,421.639587 471.114471,422.065643 474.241974,425.200134 
	C477.317108,428.282104 477.977631,432.153259 476.355286,436.245697 
	C474.770752,440.242645 471.652496,442.169739 467.434967,442.164581 
	C462.502716,442.158539 459.340302,439.667175 457.904205,434.502136 
M469.528381,427.050812 
	C466.177216,425.538208 463.945831,427.102051 462.733185,430.010803 
	C461.661652,432.581024 461.707214,435.394012 464.398773,437.142853 
	C466.569885,438.553528 468.971069,438.302765 470.840149,436.510742 
	C473.415222,434.041809 473.234283,431.220337 471.243134,428.429932 
	C470.960419,428.033661 470.519165,427.750549 469.528381,427.050812 
z"/>
<path fill="#000000" opacity="1.000000" stroke="none" 
	d="
M610.093384,423.452698 
	C613.747375,425.028839 615.175537,427.407837 613.584167,430.772247 
	C611.507202,435.162964 616.829773,436.957672 616.720398,440.959351 
	C614.576904,442.140839 612.975281,441.466949 611.472595,439.447937 
	C610.246826,437.800873 609.758789,435.397156 607.258667,434.868256 
	C605.667603,435.963531 606.430237,437.628693 606.179871,439.005432 
	C605.952698,440.255066 605.617981,441.302887 604.117004,441.312653 
	C602.685974,441.321960 601.942078,440.419312 601.927124,439.122894 
	C601.873657,434.479706 601.231262,429.694489 602.138245,425.232666 
	C602.974060,421.120819 606.924866,423.165161 610.093384,423.452698 
z"/>
<path fill="#000000" opacity="1.000000" stroke="none" 
	d="
M573.644226,440.015198 
	C570.477783,442.704376 569.680054,440.924622 569.712280,438.187317 
	C569.743347,435.545532 568.895142,434.188171 565.993530,434.179108 
	C563.085938,434.170044 562.197266,435.531128 562.264404,438.171143 
	C562.301514,439.628479 562.379944,441.445587 560.147400,441.370422 
	C558.088501,441.301086 557.944275,439.604065 557.924438,438.090118 
	C557.872070,434.093506 557.888733,430.095215 557.942566,426.098419 
	C557.961304,424.703430 558.334229,423.322754 560.030212,423.190399 
	C561.848389,423.048492 562.235718,424.443573 562.232910,425.844879 
	C562.227905,428.353729 562.907288,429.946228 565.866089,430.024658 
	C569.153015,430.111816 569.778931,428.300079 569.746704,425.612274 
	C569.731750,424.368958 570.191833,423.240753 571.719971,423.267151 
	C573.221558,423.292999 573.731079,424.506592 573.753357,425.666046 
	C573.842773,430.319672 573.782227,434.976166 573.644226,440.015198 
z"/>
<path fill="#000000" opacity="1.000000" stroke="none" 
	d="
M381.048981,432.942017 
	C381.003174,435.231201 381.008698,437.058014 380.886139,438.876251 
	C380.805115,440.078613 380.451324,441.221832 378.933258,441.302887 
	C377.122894,441.399567 376.707520,440.203766 376.681488,438.730713 
	C376.642731,436.537292 376.864746,434.318329 373.582703,434.202850 
	C370.791840,434.104645 369.066864,434.770081 369.229401,437.994995 
	C369.302704,439.450104 369.336548,441.260071 367.180023,441.285706 
	C364.732819,441.314819 364.868622,439.331940 364.847382,437.701233 
	C364.797699,433.886749 364.819183,430.070618 364.870209,426.255920 
	C364.888428,424.894012 365.112457,423.450775 366.826080,423.276215 
	C368.558929,423.099701 369.147003,424.360291 369.178833,425.810974 
	C369.232178,428.242126 369.762085,429.999512 372.775909,429.986938 
	C375.959534,429.973602 376.663635,428.140686 376.703644,425.487122 
	C376.722565,424.231628 377.251923,423.162598 378.745819,423.204712 
	C380.171906,423.244904 380.803650,424.311707 380.886475,425.522736 
	C381.044525,427.833313 381.003998,430.157471 381.048981,432.942017 
z"/>
<path fill="#000000" opacity="1.000000" stroke="none" 
	d="
M582.602661,430.688782 
	C584.487244,427.945465 583.879700,423.160980 587.933655,423.341431 
	C591.445068,423.497772 591.534058,427.718719 592.621277,430.325836 
	C594.052124,433.756805 596.454956,436.927094 596.406738,440.907837 
	C593.755371,442.288300 592.755005,440.806122 591.587097,438.917603 
	C589.332886,435.272491 586.360291,435.269562 584.029358,438.882202 
	C582.831848,440.738159 581.790039,442.250732 579.172485,440.733429 
	C579.047546,437.121674 581.595276,434.350311 582.602661,430.688782 
z"/>
<path fill="#000000" opacity="1.000000" stroke="none" 
	d="
M520.921997,439.804504 
	C514.713989,443.761353 510.054688,442.808563 509.345367,437.663605 
	C511.749634,436.179596 515.257629,439.944733 517.298523,436.222412 
	C516.403442,433.714386 513.779358,433.902008 512.112610,432.696442 
	C510.254425,431.352448 508.853088,429.748505 509.045929,427.374237 
	C509.237946,425.010101 510.634644,423.369873 512.966187,422.777191 
	C515.426819,422.151703 517.911865,422.114563 520.158325,423.523560 
	C520.884094,423.978790 521.124146,424.852417 520.845703,425.735199 
	C520.470825,426.923706 519.544922,427.073517 518.473328,426.954651 
	C516.938049,426.784393 515.263611,425.620850 513.632446,428.026733 
	C517.102478,431.105896 525.189819,431.663147 520.921997,439.804504 
z"/>
<path fill="#000000" opacity="1.000000" stroke="none" 
	d="
M398.565765,440.950989 
	C384.172211,442.708771 386.945984,441.722992 386.761383,430.616608 
	C386.630707,422.754059 387.288696,422.212097 394.720062,422.810028 
	C396.171875,422.926849 397.974365,422.670349 398.167297,424.749176 
	C398.370850,426.942535 396.551422,426.811584 395.098389,427.049133 
	C393.893860,427.246002 392.343964,426.752533 391.797119,428.571777 
	C392.836914,431.007141 397.707886,428.190948 397.379608,432.481720 
	C397.247284,432.674652 397.169373,432.818024 397.064056,432.937225 
	C395.570251,434.628204 390.436981,431.670959 391.798523,436.485260 
	C392.557251,439.168091 396.479706,436.821106 398.479431,438.441528 
	C399.202209,439.027191 399.173279,439.875397 398.565765,440.950989 
z"/>
<path fill="#000000" opacity="1.000000" stroke="none" 
	d="
M421.226990,434.374207 
	C418.548035,435.407379 419.420441,437.551544 419.087555,439.228363 
	C418.831390,440.518616 418.290039,441.417725 416.830933,441.360779 
	C415.354401,441.303223 414.803467,440.322144 414.796295,439.033325 
	C414.771240,434.545135 414.748108,430.055328 414.844330,425.568726 
	C414.890411,423.419250 416.482117,422.865265 418.306061,422.835907 
	C421.558960,422.783508 424.750488,423.074127 426.531342,426.331970 
	C427.700714,428.471191 427.157776,430.545868 425.543304,432.294830 
	C424.495911,433.429504 423.095001,433.978363 421.226990,434.374207 
z"/>
<path fill="#000000" opacity="1.000000" stroke="none" 
	d="
M549.804321,437.731995 
	C551.202209,437.632111 552.223389,437.655884 552.304993,439.060181 
	C552.384827,440.433838 551.517090,441.126251 550.385315,441.662994 
	C546.974304,443.280762 540.999512,441.792328 538.528198,438.675140 
	C535.829651,435.271393 536.055237,428.966553 538.992981,425.687317 
	C541.575500,422.804626 548.047424,421.427551 550.994873,423.114410 
	C552.402832,423.920166 552.551941,425.088989 552.096191,426.796722 
	C548.879333,427.232666 545.136169,425.107330 542.446655,428.463226 
	C541.297852,429.896637 541.095520,431.496643 541.271179,433.157166 
	C541.832458,438.460846 545.648621,438.136627 549.804321,437.731995 
z"/>
<path fill="#000000" opacity="1.000000" stroke="none" 
	d="
M349.994202,432.224274 
	C349.979675,429.553436 349.970032,427.373169 346.938995,427.022675 
	C345.756470,426.885956 344.572418,426.384186 344.706696,424.878510 
	C344.862091,423.136017 346.288849,422.910858 347.640076,422.887482 
	C350.950623,422.830048 354.263184,422.836273 357.574066,422.879822 
	C358.790436,422.895844 359.902985,423.276886 360.168457,424.688965 
	C360.339874,425.600922 359.952484,426.539093 359.081116,426.645111 
	C354.203247,427.238678 355.134094,430.882416 354.816833,434.108521 
	C354.567780,436.640869 356.404205,441.074249 352.719055,441.206787 
	C348.250153,441.367554 350.697998,436.686462 350.023468,434.153320 
	C349.899719,433.688721 350.000702,433.164246 349.994202,432.224274 
z"/>
<path fill="#000000" opacity="1.000000" stroke="none" 
	d="
M485.671570,432.250366 
	C485.863922,429.212585 485.384277,427.170105 482.185272,426.919373 
	C480.987244,426.825470 479.853973,426.221863 480.100922,424.686218 
	C480.283539,423.550690 481.223145,422.999481 482.260590,422.974579 
	C485.915253,422.886749 489.572998,422.861298 493.228394,422.907379 
	C494.494659,422.923340 495.491913,423.590302 495.621124,424.977478 
	C495.733612,426.185028 494.885895,426.940125 493.858093,426.984253 
	C489.868500,427.155487 490.148071,429.949310 490.159668,432.664703 
	C490.168884,434.825806 490.144104,436.988708 490.060150,439.147949 
	C490.009094,440.462006 489.387939,441.363922 487.920898,441.358368 
	C486.487305,441.352936 485.791656,440.536163 485.751343,439.181061 
	C485.687134,437.020569 485.695587,434.857880 485.671570,432.250366 
z"/>
<path fill="#000000" opacity="1.000000" stroke="none" 
	d="
M646.618896,424.137817 
	C646.665894,425.093262 646.552124,426.194305 646.322266,426.219055 
	C640.123047,426.887360 641.338501,431.521454 641.290161,435.477783 
	C641.276001,436.635529 641.296509,437.794373 641.254211,438.950989 
	C641.208923,440.189911 640.898071,441.299805 639.377502,441.374573 
	C637.682739,441.457977 637.025574,440.380371 636.924927,438.898712 
	C636.824097,437.415405 636.867554,435.922852 636.809631,434.435883 
	C636.681763,431.154694 637.945984,427.154541 632.612854,426.583618 
	C631.769226,426.493317 631.325745,425.532074 631.537842,424.627502 
	C631.796814,423.522797 632.707397,422.949554 633.739197,422.985077 
	C637.966797,423.130585 642.291077,421.844147 646.618896,424.137817 
z"/>
<path fill="#000000" opacity="1.000000" stroke="none" 
	d="
M657.026917,440.210480 
	C657.980469,433.529663 653.585999,429.124176 650.794128,423.938446 
	C655.624939,421.728760 656.007446,426.671936 658.781921,427.892242 
	C661.577332,427.429199 661.757446,421.625946 666.043884,423.395844 
	C666.859253,425.168213 665.769226,426.242737 664.980164,427.165314 
	C662.279968,430.322418 660.778503,433.760468 661.053650,438.037323 
	C661.220764,440.634277 660.236877,442.439270 657.026917,440.210480 
z"/>
<path fill="#000000" opacity="1.000000" stroke="none" 
	d="
M454.202148,438.315186 
	C455.471954,440.471039 454.527924,441.453491 452.720367,441.603180 
	C450.410522,441.794556 448.074860,441.789734 445.755585,441.712494 
	C444.132568,441.658386 442.794067,440.971436 442.775696,439.061157 
	C442.732452,434.572693 442.727081,430.083496 442.754150,425.594879 
	C442.761719,424.340881 443.212006,423.240723 444.687134,423.169708 
	C446.127045,423.100372 446.801910,424.103790 446.929901,425.349915 
	C447.099243,426.998108 447.101898,428.667694 447.103302,430.328125 
	C447.109192,437.265411 447.099182,437.265411 454.202148,438.315186 
z"/>
<path fill="#000000" opacity="1.000000" stroke="none" 
	d="
M436.268860,434.802521 
	C436.268127,436.094391 436.314911,436.927734 436.250549,437.752350 
	C436.126221,439.344421 436.477417,441.401947 433.922302,441.257324 
	C431.843048,441.139618 431.875305,439.370331 431.854950,437.896362 
	C431.799927,433.916168 431.809845,429.934296 431.855804,425.953827 
	C431.872162,424.537689 432.321075,423.227783 434.027222,423.173950 
	C435.811188,423.117645 436.170349,424.486877 436.205902,425.880859 
	C436.277802,428.699249 436.251770,431.520172 436.268860,434.802521 
z"/>
<path fill="#000000" opacity="1.000000" stroke="none" 
	d="
M626.158813,438.389343 
	C626.022644,440.292511 625.537354,441.465210 623.771423,441.307190 
	C622.001221,441.148834 621.791870,439.775543 621.781372,438.402740 
	C621.749756,434.263794 621.745361,430.124207 621.785156,425.985382 
	C621.798767,424.567200 622.229919,423.235687 623.955872,423.250427 
	C625.690491,423.265198 626.076172,424.672455 626.104797,426.038513 
	C626.188171,430.010681 626.163879,433.985077 626.158813,438.389343 
z"/>
<path fill="#000000" opacity="1.000000" stroke="none" 
	d="
M500.320068,423.630066 
	C502.258850,422.223663 503.912140,422.126831 504.097961,424.568054 
	C504.256836,426.654907 503.890594,429.954559 501.534668,429.732117 
	C497.497833,429.350922 499.888824,426.096710 500.320068,423.630066 
z"/>
</svg>